<svg width="167" height="18" viewBox="0 0 167 18" fill="none" xmlns="http://www.w3.org/2000/svg">
<path d="M7.976 18H0.728V0.167999H9.728L15.2 9.216L15.392 9.624H15.416L15.608 9.216L21.056 0.167999H30.08V18H22.832V8.256L22.856 7.848L22.712 8.184L18.176 15.672H12.632L8.096 8.184L7.952 7.848L7.976 8.256V18ZM40.8845 18H33.5405V0.167999H41.8445L51.1565 9.552L51.3485 9.816V0.167999H58.6925V18H50.4125L41.0525 8.592L40.8845 8.376V18ZM82.3657 18H62.1577V0.167999H82.1017V5.064H70.6057V7.008H81.0697V10.848H70.6057V13.104H82.3657V18ZM93.2932 18H84.8452V0.167999H93.2932V18ZM110.047 18H96.7514V0.167999H110.047C118.399 0.167999 121.783 3.984 121.783 9.096C121.783 14.064 118.639 18 110.047 18ZM105.199 5.208V12.936H108.583C111.535 12.936 113.215 11.88 113.215 9.096C113.215 6.288 111.535 5.208 108.559 5.208H105.199ZM144.288 18H124.08V0.167999H144.024V5.064H132.528V7.008H142.992V10.848H132.528V13.104H144.288V18ZM160.327 18H151.903V5.208H145.231V0.167999H166.975V5.208H160.327V18Z" fill="white"/>
</svg>
