<svg width="39" height="39" viewBox="0 0 39 39" fill="none" xmlns="http://www.w3.org/2000/svg">
<path d="M19.1667 0C8.58667 0 0 8.58667 0 19.1667C0 29.7467 8.58667 38.3333 19.1667 38.3333C29.7467 38.3333 38.3333 29.7467 38.3333 19.1667C38.3333 8.58667 29.7467 0 19.1667 0Z" fill="#1B3C4D"/>
<path fill-rule="evenodd" clip-rule="evenodd" d="M19.5 11.666C20.3123 11.666 21.1454 11.6866 21.9529 11.7204L22.9067 11.7654L23.8197 11.8188L24.6747 11.876L25.4555 11.936C26.3031 11.9997 27.1008 12.3564 27.708 12.9435C28.3152 13.5305 28.693 14.3101 28.7749 15.1451L28.8129 15.5435L28.8841 16.3966C28.9506 17.2807 29 18.2445 29 19.166C29 20.0876 28.9506 21.0513 28.8841 21.9354L28.8129 22.7885L28.7749 23.187C28.6929 24.022 28.315 24.8018 27.7076 25.3889C27.1002 25.9759 26.3023 26.3326 25.4546 26.396L24.6756 26.4551L23.8206 26.5132L22.9067 26.5666L21.9529 26.6116C21.1357 26.6466 20.3179 26.6647 19.5 26.666C18.6821 26.6647 17.8643 26.6466 17.0471 26.6116L16.0933 26.5666L15.1804 26.5132L14.3254 26.4551L13.5445 26.396C12.6969 26.3324 11.8992 25.9756 11.292 25.3886C10.6848 24.8015 10.307 24.0219 10.2252 23.187L10.1872 22.7885L10.1159 21.9354C10.0435 21.0139 10.0049 20.0902 10 19.166C10 18.2445 10.0494 17.2807 10.1159 16.3966L10.1872 15.5435L10.2252 15.1451C10.307 14.3103 10.6847 13.5308 11.2917 12.9437C11.8987 12.3567 12.6961 11.9999 13.5435 11.936L14.3235 11.876L15.1785 11.8188L16.0924 11.7654L17.0461 11.7204C17.8636 11.6854 18.6818 11.6673 19.5 11.666ZM17.6 16.8926V21.4395C17.6 21.8726 18.075 22.1426 18.455 21.927L22.445 19.6535C22.5318 19.6042 22.6039 19.5332 22.6541 19.4476C22.7042 19.362 22.7306 19.2649 22.7306 19.166C22.7306 19.0672 22.7042 18.97 22.6541 18.8845C22.6039 18.7989 22.5318 18.7278 22.445 18.6785L18.455 16.406C18.3683 16.3566 18.27 16.3306 18.1699 16.3307C18.0698 16.3307 17.9715 16.3567 17.8848 16.4061C17.7982 16.4555 17.7262 16.5266 17.6762 16.6121C17.6262 16.6977 17.5999 16.7947 17.6 16.8935V16.8926Z" fill="white"/>
</svg>
