<svg width="43" height="41" viewBox="0 0 43 41" fill="none" xmlns="http://www.w3.org/2000/svg">
<path d="M21.4168 0.0832977L22.1712 3.16978C23.3501 7.99281 23.9395 10.4043 25.1966 12.3502C26.3081 14.071 27.7902 15.5216 29.5343 16.5961C31.5067 17.8112 33.9303 18.3488 38.7774 19.4241L42.5002 20.25L38.7774 21.0758C33.9303 22.1511 31.5067 22.6888 29.5343 23.9039C27.7902 24.9783 26.3081 26.429 25.1966 28.1497C23.9395 30.0956 23.3501 32.5071 22.1712 37.3302L21.4168 40.4166L20.6624 37.3302C19.4836 32.5071 18.8941 30.0956 17.6371 28.1497C16.5255 26.429 15.0435 24.9783 13.2994 23.9039C11.327 22.6888 8.90339 22.1511 4.05622 21.0758L0.333496 20.25L4.05622 19.4241C8.90339 18.3488 11.327 17.8112 13.2994 16.5961C15.0435 15.5216 16.5255 14.071 17.6371 12.3502C18.8941 10.4043 19.4836 7.9928 20.6624 3.16977L21.4168 0.0832977Z" fill="#1B3C4D"/>
</svg>
