<svg width="185" height="185" viewBox="0 0 185 185" fill="none" xmlns="http://www.w3.org/2000/svg">
<rect width="184.328" height="184.328" rx="36.8657" fill="#8296A6"/>
<path d="M29.2034 86.5522H15.7949V53.5638H32.4445L42.5675 70.3022L42.9227 71.057H42.9671L43.3223 70.3022L53.4008 53.5638H70.0949V86.5522H56.6864V68.5263L56.7308 67.7715L56.4644 68.3931L48.073 82.2455H37.8168L29.4254 68.3931L29.159 67.7715L29.2034 68.5263V86.5522ZM90.0827 86.5522H76.4966V53.5638H91.8587L109.086 70.9238L109.441 71.4122V53.5638H123.027V86.5522H107.709L90.3935 69.1478L90.0827 68.7482V86.5522ZM166.821 86.5522H129.437V53.5638H166.333V62.6212H145.066V66.2175H164.424V73.3213H145.066V77.4949H166.821V86.5522ZM31.4884 137.552H15.8599V104.564H31.4884V137.552ZM62.483 137.552H37.886V104.564H62.483C77.9339 104.564 84.1941 111.623 84.1941 121.08C84.1941 130.271 78.3779 137.552 62.483 137.552ZM53.5144 113.888V128.184H59.7747C65.2358 128.184 68.3437 126.231 68.3437 121.08C68.3437 115.886 65.2358 113.888 59.7303 113.888H53.5144ZM125.826 137.552H88.4419V104.564H125.337V113.621H104.07V117.218H123.428V124.321H104.07V128.495H125.826V137.552ZM155.498 137.552H139.914V113.888H127.571V104.564H167.797V113.888H155.498V137.552Z" fill="white"/>
</svg>
