<svg width="17" height="17" viewBox="0 0 17 17" fill="none" xmlns="http://www.w3.org/2000/svg">
<path d="M8.5 10.2C13.192 10.2 17 11.9793 17 14.1667V17H0V14.1667C0 11.9793 3.808 10.2 8.5 10.2ZM15.8667 14.1667C15.8667 12.6027 12.5687 11.3333 8.5 11.3333C4.43133 11.3333 1.13333 12.6027 1.13333 14.1667V15.8667H15.8667V14.1667ZM8.5 0C9.55203 0 10.561 0.417916 11.3049 1.16181C12.0488 1.9057 12.4667 2.91464 12.4667 3.96667C12.4667 5.01869 12.0488 6.02763 11.3049 6.77152C10.561 7.51542 9.55203 7.93333 8.5 7.93333C7.44797 7.93333 6.43904 7.51542 5.69514 6.77152C4.95125 6.02763 4.53333 5.01869 4.53333 3.96667C4.53333 2.91464 4.95125 1.9057 5.69514 1.16181C6.43904 0.417916 7.44797 0 8.5 0ZM8.5 1.13333C7.74855 1.13333 7.02788 1.43184 6.49653 1.9632C5.96518 2.49455 5.66667 3.21522 5.66667 3.96667C5.66667 4.71811 5.96518 5.43878 6.49653 5.97014C7.02788 6.50149 7.74855 6.8 8.5 6.8C9.25145 6.8 9.97212 6.50149 10.5035 5.97014C11.0348 5.43878 11.3333 4.71811 11.3333 3.96667C11.3333 3.21522 11.0348 2.49455 10.5035 1.9632C9.97212 1.43184 9.25145 1.13333 8.5 1.13333Z" fill="white"/>
</svg>
